3.0Hz3min_grf.mot
version=1
nRows=27
nColumns 19
inDegrees=yes
endheader
time	1_ground_force_vx	1_ground_force_vy	1_ground_force_vz	1_ground_force_px	1_ground_force_py	1_ground_force_pz	1_ground_torque_x	1_ground_torque_y	1_ground_torque_z	2_ground_force_vx	2_ground_force_vy	2_ground_force_vz	2_ground_force_px	2_ground_force_py	2_ground_force_pz	2_ground_torque_x	2_ground_torque_y	2_ground_torque_z
            0.005000	          -11.807502	           75.549881	           -4.507615	           -0.194942	            0.006128	           -0.381575	           -0.050071	            0.320378	           -0.019115	            1.921519	           15.754485	           25.115277	           -0.085597	            0.006448	           -0.774457	           -0.128986	           -1.057550	           -1.685910
            0.005500	          -13.045268	           78.072575	           -4.310298	           -0.195360	            0.006122	           -0.380271	           -0.068796	            0.411728	           -0.022731	            2.657386	           19.622465	           25.644966	           -0.103922	            0.006373	           -0.771752	           -0.202078	           -1.492172	           -1.950148
            0.006000	          -14.466909	           80.235685	           -4.343351	           -0.194125	            0.006133	           -0.382781	           -0.069275	            0.384212	           -0.020798	            3.300678	           23.123484	           25.704099	           -0.118209	            0.006332	           -0.774874	           -0.263264	           -1.844343	           -2.050174
            0.006500	          -16.485946	           84.023038	           -4.826528	           -0.194343	            0.006132	           -0.382546	           -0.041912	            0.213609	           -0.012270	            3.343602	           24.228041	           25.848806	           -0.120030	            0.006287	           -0.764073	           -0.273385	           -1.980973	           -2.113493
            0.007000	          -18.598539	           88.714649	           -5.993451	           -0.194088	            0.006132	           -0.382524	           -0.023017	            0.109788	           -0.007417	            2.910819	           27.355702	           26.235580	           -0.130399	            0.006229	           -0.758428	           -0.237825	           -2.235063	           -2.143545
            0.007500	          -20.069066	           91.964260	           -7.168150	           -0.194063	            0.006128	           -0.381535	           -0.031718	            0.145346	           -0.011329	            1.819355	           31.218591	           26.343693	           -0.139043	            0.006197	           -0.758052	           -0.140983	           -2.419155	           -2.041395
            0.008000	          -21.539663	           96.835868	           -8.244181	           -0.193523	            0.006133	           -0.382573	           -0.043315	            0.194733	           -0.016579	            1.153384	           33.979284	           26.119187	           -0.144716	            0.006143	           -0.748755	           -0.084666	           -2.494290	           -1.917310
            0.008500	          -22.917890	          101.706315	           -9.045304	           -0.192787	            0.006138	           -0.383834	           -0.061808	            0.274296	           -0.024395	            1.373636	           37.847580	           26.039029	           -0.152766	            0.006104	           -0.745955	           -0.099960	           -2.754193	           -1.894877
            0.009000	          -24.203227	          106.214281	           -9.389642	           -0.192000	            0.006139	           -0.384051	           -0.066960	            0.293850	           -0.025977	            1.493849	           43.554509	           26.669404	           -0.160789	            0.006083	           -0.748091	           -0.104618	           -3.050231	           -1.867725
            0.009500	          -25.717711	          110.361672	           -9.734956	           -0.192455	            0.006144	           -0.385104	           -0.063815	            0.273850	           -0.024156	            1.619442	           47.787750	           27.435306	           -0.164429	            0.006054	           -0.743577	           -0.107841	           -3.182243	           -1.826950
            0.010000	          -27.507032	          115.770084	           -9.890754	           -0.192447	            0.006144	           -0.385076	           -0.060951	            0.256526	           -0.021916	            0.897749	           53.122837	           28.205509	           -0.171291	            0.006030	           -0.743920	           -0.057484	           -3.401524	           -1.806035
            0.010500	          -29.757136	          121.002269	          -11.009161	           -0.191669	            0.006144	           -0.385079	           -0.034368	            0.139753	           -0.012715	           -0.056283	           57.905301	           28.786128	           -0.176823	            0.005996	           -0.739919	            0.003327	           -3.423043	           -1.701678
            0.011000	          -31.639653	          125.332018	          -11.857207	           -0.191803	            0.006144	           -0.385070	           -0.032620	            0.129214	           -0.012225	           -1.476216	           61.949983	           29.223534	           -0.178918	            0.005985	           -0.739059	            0.079296	           -3.327703	           -1.569770
            0.011500	          -33.249355	          130.746952	          -13.526705	           -0.191855	            0.006141	           -0.384470	           -0.040049	            0.157484	           -0.016293	           -2.615879	           66.181168	           29.286053	           -0.181300	            0.005964	           -0.735538	            0.131132	           -3.317600	           -1.468082
            0.012000	          -34.767163	          135.620911	          -15.152893	           -0.191700	            0.006143	           -0.384992	           -0.050319	            0.196285	           -0.021931	           -3.429546	           70.965646	           29.444260	           -0.184218	            0.005949	           -0.734257	            0.166522	           -3.445741	           -1.429668
            0.012500	          -36.237321	          141.212599	          -15.996553	           -0.191644	            0.006144	           -0.385071	           -0.055255	            0.215321	           -0.024392	           -4.101210	           75.381331	           29.882661	           -0.185491	            0.005945	           -0.734460	            0.196732	           -3.615994	           -1.433452
            0.013000	          -37.339286	          145.720601	          -16.341345	           -0.191876	            0.006146	           -0.385590	           -0.043821	            0.171015	           -0.019178	           -4.821095	           80.165479	           30.228540	           -0.186073	            0.005939	           -0.733259	            0.223868	           -3.722497	           -1.403667
            0.013500	          -38.898521	          149.505683	          -16.275389	           -0.191078	            0.006149	           -0.386218	           -0.013486	            0.051834	           -0.005643	           -6.145896	           83.841366	           30.899233	           -0.187162	            0.005934	           -0.733059	            0.272352	           -3.715379	           -1.369281
            0.014000	          -40.138851	          154.195300	          -16.940059	           -0.191705	            0.006150	           -0.386620	           -0.022520	            0.086513	           -0.009504	           -7.703118	           86.965308	           31.192629	           -0.187280	            0.005924	           -0.730363	            0.314442	           -3.549934	           -1.273287
            0.014500	          -41.425979	          159.787613	          -17.921741	           -0.190641	            0.006146	           -0.385663	           -0.035238	            0.135918	           -0.015245	           -9.776168	           90.270025	           31.909254	           -0.187090	            0.005922	           -0.729629	            0.365782	           -3.377510	           -1.193905
            0.015000	          -42.668221	          165.021174	          -19.317787	           -0.191564	            0.006147	           -0.385783	           -0.057615	            0.222830	           -0.026085	          -11.617210	           94.130033	           32.064614	           -0.188932	            0.005912	           -0.728619	            0.412400	           -3.341525	           -1.138263
            0.015500	          -44.139108	          168.992240	          -20.581106	           -0.191466	            0.006147	           -0.385927	           -0.057115	            0.218670	           -0.026631	          -13.361810	           97.253131	           32.405018	           -0.188212	            0.005911	           -0.727641	            0.460953	           -3.355022	           -1.117903
            0.016000	          -45.060628	          173.325124	          -22.119381	           -0.190685	            0.006147	           -0.385836	           -0.014699	            0.056539	           -0.007215	          -14.408212	          101.666961	           32.984363	           -0.187514	            0.005920	           -0.729466	            0.480985	           -3.393918	           -1.101107
            0.016500	          -45.796161	          178.914987	          -22.506301	           -0.191329	            0.006144	           -0.385041	           -0.022249	            0.086922	           -0.010934	          -15.449482	          104.609111	           33.136098	           -0.187622	            0.005913	           -0.727574	            0.517028	           -3.500819	           -1.108923
            0.017000	          -46.667882	          182.159798	          -22.536082	           -0.191245	            0.006149	           -0.386366	            0.011718	           -0.045738	            0.005659	          -16.962451	          108.469298	           33.572887	           -0.188561	            0.005909	           -0.727345	            0.538707	           -3.444856	           -1.066235
            0.017500	          -47.173545	          186.667325	          -22.744786	           -0.191030	            0.006149	           -0.386241	           -0.002192	            0.008672	           -0.001057	          -18.380472	          111.962212	           33.820610	           -0.187330	            0.005914	           -0.727609	            0.542683	           -3.305679	           -0.998552
            0.018000	          -47.588778	          191.177033	          -23.458133	           -0.191130	            0.006152	           -0.386964	           -0.005231	            0.021012	           -0.002578	          -20.317291	          116.375004	           33.790268	           -0.187620	            0.005908	           -0.726133	            0.563262	           -3.226297	           -0.936777
